# xmcd
#
# Track frame offsets: 
#        150
#        19057
#        36315
#        53977
#        71645
#        89761
#        111203
#        126942
#        146269
#        164236
#        186110
#        208329
#        224105
#        245273
#        263672
#        281855
#        300229
#        319201
#        340633
#
# Disc length: 4776 seconds
#
# Revision: 0
# Processed by: cddbd v1.5.2PL0 Copyright (c) Steve Scherf et al.
# Submitted via: ExactAudioCopy v0.99pb4
#
DISCID=2f12a613
DTITLE=Various Artist - prevue promo 1099A-1
DYEAR=2002
DGENRE=pop
TTITLE0=Dave Matthews Band - Grace Is Gone(Remix Edit)
TTITLE1=Pink - Family Portrait
TTITLE2=Jimmy Fallon - Idiot Boyfriend
TTITLE3=Red Hot Chili Peppers - Zephyr Song, The
TTITLE4=Uncle Kracker - In A Little While(Radio Edit)
TTITLE5=Justin Timberlake - Like I Love You
TTITLE6=Ashanti - Happy(Mainstream Edit)
TTITLE7=Trey Anastasio - Cayman Review
TTITLE8=Lamya - East Of Anywhere
TTITLE9=Geoff Tate - Helpless
TTITLE10=Bob Geldorf - One For Me
TTITLE11=Tom Petty and the Heartbreakers - Last DJ, The
TTITLE12=Todd Sharp - I Believe In You
TTITLE13=Juliana Theory, The - Do You Believe Me?
TTITLE14=Oasis - Little By Little
TTITLE15=Oasis - My Generation
TTITLE16=Foo Fighters - All My Life
TTITLE17=Jerry Cantrell - Angel Eyes
TTITLE18=Brand New Sin - My World
EXTD=
EXTT0=
EXTT1=
EXTT2=
EXTT3=
EXTT4=
EXTT5=
EXTT6=
EXTT7=
EXTT8=
EXTT9=
EXTT10=
EXTT11=
EXTT12=
EXTT13=
EXTT14=
EXTT15=
EXTT16=
EXTT17=
EXTT18=
PLAYORDER=
